<svg xmlns="http://www.w3.org/2000/svg" xmlns:xlink="http://www.w3.org/1999/xlink" viewBox="0 0 1200 130" width="1200" height="130" font-family="'Courier New', Courier, monospace">
  <defs>
    <linearGradient id="fedge" x1="0" y1="0" x2="1" y2="0">
      <stop offset="0" stop-color="#bb9af7"/>
      <stop offset="0.5" stop-color="#7aa2f7"/>
      <stop offset="1" stop-color="#f7768e"/>
    </linearGradient>
    <pattern id="fgrid" width="26" height="26" patternUnits="userSpaceOnUse">
      <path d="M26 0H0V26" fill="none" stroke="#7aa2f7" stroke-width="0.5" opacity="0.06"/>
    </pattern>
    <path id="fcranium" d="M 0,-66 C 32,-66 53,-44 53,-12 C 53,6 45,18 37,26 L 37,40 C 37,49 30,54 21,54 L -21,54 C -30,54 -37,49 -37,40 L -37,26 C -45,18 -53,6 -53,-12 C -53,-44 -32,-66 0,-66 Z"/>
  </defs>

  <rect x="2" y="2" width="1196" height="126" rx="12" fill="#1a1b26" stroke="url(#fedge)" stroke-width="2"/>
  <rect x="2" y="2" width="1196" height="126" rx="12" fill="url(#fgrid)"/>

  <!-- glitch skull -->
  <g transform="translate(60 65) scale(0.46)">
    <use href="#fcranium" xlink:href="#fcranium" fill="#f7768e" opacity="0.45">
      <animate attributeName="x" values="0;4;-3;0" dur="2.8s" repeatCount="indefinite"/>
    </use>
    <use href="#fcranium" xlink:href="#fcranium" fill="#7dcfff" opacity="0.45">
      <animate attributeName="x" values="0;-4;3;0" dur="2.8s" repeatCount="indefinite"/>
    </use>
    <use href="#fcranium" xlink:href="#fcranium" fill="#c0caf5"/>
    <path d="M -33,-26 Q -18,-31 -8,-14 Q -13,-1 -30,-5 Q -37,-15 -33,-26 Z" fill="#1a1b26"/>
    <path d="M 33,-26 Q 18,-31 8,-14 Q 13,-1 30,-5 Q 37,-15 33,-26 Z" fill="#1a1b26"/>
    <circle cx="-20" cy="-14" r="4" fill="#f7768e">
      <animate attributeName="opacity" values="1;0.3;1" dur="1.6s" repeatCount="indefinite"/>
    </circle>
    <circle cx="20" cy="-14" r="4" fill="#f7768e">
      <animate attributeName="opacity" values="0.3;1;0.3" dur="1.6s" repeatCount="indefinite"/>
    </circle>
    <path d="M 0,2 L -7,20 L 0,15 L 7,20 Z" fill="#1a1b26"/>
    <path d="M -24,42 H 24 M -16,42 V 55 M -8,42 V 56 M 0,42 V 56 M 8,42 V 56 M 16,42 V 55" fill="none" stroke="#1a1b26" stroke-width="2.5"/>
  </g>

  <!-- prompt -->
  <g font-size="17">
    <text x="118" y="60"><tspan fill="#9ece6a">root@devshm3</tspan><tspan fill="#565f89">:</tspan><tspan fill="#7aa2f7">~</tspan><tspan fill="#565f89"># </tspan><tspan fill="#c0caf5">exit</tspan></text>
    <text x="118" y="86" font-size="14"><tspan fill="#565f89">// connection to target closed — </tspan><tspan fill="#bb9af7">stay curious, hack ethically</tspan></text>
    <rect x="184" y="48" width="11" height="15" fill="#f7768e">
      <animate attributeName="opacity" values="1;1;0;0" dur="1.1s" repeatCount="indefinite"/>
    </rect>
  </g>

  <text x="1140" y="70" text-anchor="end" font-size="13" fill="#565f89" letter-spacing="2">EOF</text>
</svg>
